<?xml version="1.0" encoding="UTF-8"?>
<svg width="100pt" height="100pt" version="1.1" viewBox="0 0 100 100" xmlns="http://www.w3.org/2000/svg">
 <path d="m74 71.211l-21.172-21.211 21.172-21.211c0.47656-0.33984 0.78125-0.875 0.83203-1.4609 0.046875-0.58594-0.16406-1.1641-0.58203-1.5781-0.41406-0.41797-0.99219-0.62891-1.5781-0.58203-0.58594 0.050781-1.1211 0.35547-1.4609 0.83203l-21.211 21.172-21.211-21.172c-0.79297-0.57031-1.8828-0.47656-2.5742 0.21484s-0.78516 1.7812-0.21484 2.5742l21.172 21.211-21.172 21.211c-0.47656 0.33984-0.78125 0.875-0.83203 1.4609-0.046875 0.58594 0.16406 1.1641 0.58203 1.5781 0.41406 0.41797 0.99219 0.62891 1.5781 0.58203 0.58594-0.050781 1.1211-0.35547 1.4609-0.83203l21.211-21.172 21.211 21.172c0.33984 0.47656 0.875 0.78125 1.4609 0.83203 0.58594 0.046875 1.1641-0.16406 1.5781-0.58203 0.41797-0.41406 0.62891-0.99219 0.58203-1.5781-0.050781-0.58594-0.35547-1.1211-0.83203-1.4609z"/>
</svg>
