<svg width="80" height="73" viewBox="0 0 80 73" fill="none" xmlns="http://www.w3.org/2000/svg">
<path d="M58.0144 0.900225H57.9501C51.2394 0.996566 44.8135 3.62652 39.962 8.26227C34.1519 2.77556 28.7276 6.28608e-05 23.8822 6.28608e-05C20.7317 -0.00722947 17.612 0.620025 14.7094 1.84439C11.8067 3.06876 9.18053 4.86515 6.98759 7.12635C2.50599 11.7502 0 17.9358 0 24.3741C0 30.8123 2.50599 36.998 6.98759 41.6219L39.2545 72.6989C39.4544 72.892 39.7216 73 39.9996 73C40.2776 73 40.5447 72.892 40.7446 72.6989L73.0437 41.6219C77.5065 36.9926 80 30.8139 80 24.3848C80 17.9557 77.5065 11.7771 73.0437 7.14778C71.0962 5.13815 68.7586 3.5474 66.1742 2.47309C63.5898 1.39878 60.8131 0.863547 58.0144 0.900225ZM71.4893 40.0787L39.962 70.4592L8.46693 40.1001C4.38202 35.8792 2.09834 30.2363 2.09834 24.3634C2.09834 18.4905 4.38202 12.8475 8.46693 8.62662C10.4653 6.57989 12.8551 4.95592 15.4942 3.85132C18.1332 2.74673 20.9676 2.18409 23.8286 2.19689C28.3631 2.19689 33.5301 5.01525 39.2116 10.577C39.4125 10.7766 39.6842 10.8886 39.9674 10.8886C40.2506 10.8886 40.5223 10.7766 40.7232 10.577C42.9608 8.25655 45.634 6.39972 48.5899 5.11259C51.5458 3.82547 54.7264 3.13329 57.9501 3.07562H58.0144C60.5177 3.04395 63.0012 3.52163 65.314 4.47959C67.6269 5.43756 69.7206 6.8558 71.4679 8.64805C75.5316 12.8756 77.8011 18.5111 77.8011 24.3741C77.8011 30.2371 75.5316 35.8726 71.4679 40.1001L71.4893 40.0787Z" fill="black"/>
</svg>
