<svg width="76" height="70" viewBox="0 0 76 70" fill="none" xmlns="http://www.w3.org/2000/svg">
<path d="M54.84 1.76999H54.78C48.52 1.85989 42.5257 4.31407 38 8.63999C32.58 3.51999 27.52 0.92999 23 0.92999C20.0611 0.923185 17.1509 1.50852 14.4432 2.65106C11.7355 3.79359 9.28568 5.46992 7.24 7.57999C3.05937 11.8948 0.72168 17.667 0.72168 23.675C0.72168 29.6829 3.05937 35.4552 7.24 39.77L37.34 68.77C37.5265 68.9502 37.7757 69.051 38.035 69.051C38.2943 69.051 38.5435 68.9502 38.73 68.77L68.86 39.77C73.0231 35.4501 75.3491 29.6844 75.3491 23.685C75.3491 17.6856 73.0231 11.9199 68.86 7.59999C67.0433 5.72468 64.8627 4.24025 62.4518 3.23773C60.041 2.23522 57.4507 1.73576 54.84 1.76999Z" fill="#D54F50"/>
</svg>
