<?xml version="1.0" encoding="UTF-8"?>
<svg width="100pt" height="100pt" version="1.1" viewBox="0 0 100 100" xmlns="http://www.w3.org/2000/svg">
 <path d="m96.5 40.707-40.625-32.375c-1.4531-1.1484-3.4375-1.3672-5.1055-0.55859-1.668 0.80859-2.7305 2.4961-2.7266 4.3516v15.5c-15.117 0.75-29.031 8.4727-37.66 20.906-8.6328 12.434-11.004 28.168-6.4258 42.594 0.32812 1.0391 1.2891 1.7461 2.375 1.75 1.0898-0.003906 2.0508-0.71094 2.375-1.75 2.7148-8.457 7.918-15.898 14.926-21.355 7.0117-5.457 15.504-8.6719 24.367-9.2266v16.375c0 1.8516 1.0586 3.543 2.7266 4.3516 1.668 0.80859 3.6523 0.58984 5.1055-0.5625l40.668-32.457c1.1445-0.91797 1.8086-2.3047 1.8086-3.7695 0-1.4688-0.66406-2.8555-1.8086-3.7734zm-43.457 36.211v-18.961c0-1.3789-1.1211-2.5-2.5-2.5-8.9844 0.046875-17.789 2.5469-25.453 7.2344-7.668 4.6836-13.91 11.375-18.047 19.352-1.6055-12.496 2.2422-25.082 10.559-34.547 8.3164-9.4648 20.301-14.895 32.898-14.914 1.3789 0 2.5-1.1172 2.5-2.5l-0.29297-17.957 40.668 32.207z"/>
</svg>
