<?xml version="1.0" standalone="no"?>
<!DOCTYPE svg PUBLIC "-//W3C//DTD SVG 20010904//EN"
 "http://www.w3.org/TR/2001/REC-SVG-20010904/DTD/svg10.dtd">
<svg version="1.0" xmlns="http://www.w3.org/2000/svg"
 width="256.000000pt" height="256.000000pt" viewBox="0 0 256.000000 256.000000"
 preserveAspectRatio="xMidYMid meet">
<metadata>
Created by potrace 1.11, written by Peter Selinger 2001-2013
</metadata>
<g transform="translate(0.000000,256.000000) scale(0.100000,-0.100000)"
fill="#000000" stroke="none">
<path d="M1209 2436 c-2 -2 -23 -6 -47 -10 -56 -7 -166 -52 -222 -89 -122 -81
-234 -245 -264 -387 -32 -145 -6 -321 65 -449 17 -29 28 -55 26 -57 -2 -3 -94
-65 -203 -140 -110 -74 -199 -139 -198 -144 1 -6 2 -109 2 -230 l2 -219 305
-208 c168 -114 373 -254 456 -311 l150 -104 92 63 c51 34 135 92 187 127 52
36 158 108 235 160 173 117 388 264 394 269 3 2 5 99 5 216 1 116 5 218 10
225 4 7 6 14 5 16 -2 1 -89 60 -194 130 -104 70 -198 133 -208 141 -17 12 -17
16 13 69 49 86 71 168 75 281 4 121 -11 199 -59 299 -79 164 -212 277 -386
331 -50 15 -231 31 -241 21z"/>
</g>
</svg>
